<svg width="29" height="28" viewBox="0 0 29 28" fill="none" xmlns="http://www.w3.org/2000/svg">
<ellipse cx="6.69844" cy="21.5679" rx="5.83321" ry="5.67568" fill="#2D78FF"/>
<path d="M14.801 14.59L12.199 12L10.7825 13.41L14.801 17.41L22.8378 9.41L21.4213 8L14.801 14.59Z" fill="#0B243A"/>
<path d="M16.8102 28L10.6057 24.707C8.83694 23.7703 7.35779 22.3719 6.32702 20.6617C5.29625 18.9516 4.75276 16.9943 4.75489 15V2C4.75542 1.46973 4.96728 0.961329 5.34396 0.586371C5.72065 0.211413 6.23139 0.000529477 6.7641 0H26.8562C27.389 0.000529477 27.8997 0.211413 28.2764 0.586371C28.6531 0.961329 28.8649 1.46973 28.8655 2V15C28.8676 16.9943 28.3241 18.9516 27.2933 20.6617C26.2626 22.3719 24.7834 23.7703 23.0146 24.707L16.8102 28ZM6.7641 2V15C6.76244 16.6318 7.20724 18.2333 8.05077 19.6325C8.8943 21.0317 10.1047 22.1758 11.5521 22.942L16.8102 25.733L22.0683 22.943C23.5158 22.1767 24.7263 21.0324 25.5698 19.633C26.4134 18.2336 26.8581 16.632 26.8562 15V2H6.7641Z" fill="#0B243A"/>
</svg>
