<svg width="28" height="28" viewBox="0 0 28 28" fill="none" xmlns="http://www.w3.org/2000/svg">
<ellipse cx="22.7501" cy="22.6152" rx="5.25005" ry="5.38465" fill="#2D78FF"/>
<path d="M18.6202 5.77454C18.8135 5.77454 18.9702 5.61784 18.9702 5.42454V2.71227C18.9702 2.51897 18.8135 2.36227 18.6202 2.36227H3.99004C3.06188 2.36227 2.31003 3.13878 2.31003 4.0684C2.31003 4.51872 2.48541 4.95194 2.7997 5.2724C3.11421 5.5931 3.54225 5.77454 3.99004 5.77454H18.6202ZM20.9302 5.42454C20.9302 5.61784 21.0869 5.77454 21.2802 5.77454H22.6102C23.1451 5.77454 23.5902 6.21855 23.5902 6.78067V10.8491C23.5902 11.0424 23.7469 11.1991 23.9402 11.1991H25.2702C25.8051 11.1991 26.2503 11.6431 26.2503 12.2052V17.6297C26.2503 18.1919 25.8051 18.6359 25.2702 18.6359H23.9402C23.7469 18.6359 23.5902 18.7926 23.5902 18.9859V23.0543C23.5902 23.6164 23.1451 24.0604 22.6102 24.0604H3.99004C1.99216 24.0604 0.35 22.3959 0.35 20.342V4.0684C0.35 2.01453 1.99216 0.35 3.99004 0.35H19.9502C20.4851 0.35 20.9302 0.794013 20.9302 1.35613V5.42454ZM2.77873 7.57488C2.67148 7.53621 2.55212 7.5522 2.45884 7.61773C2.36555 7.68327 2.31003 7.79013 2.31003 7.90413V20.342C2.31003 21.2716 3.06188 22.0481 3.99004 22.0481H21.2802C21.4735 22.0481 21.6302 21.8914 21.6302 21.6981V18.9859C21.6302 18.7926 21.4735 18.6359 21.2802 18.6359H19.9502C17.9523 18.6359 16.3102 16.9713 16.3102 14.9175C16.3102 13.9291 16.6953 12.9826 17.3787 12.2858C18.0619 11.5891 18.987 11.1991 19.9502 11.1991H21.2802C21.4735 11.1991 21.6302 11.0424 21.6302 10.8491V8.1368C21.6302 7.9435 21.4735 7.7868 21.2802 7.7868H3.99004C3.57353 7.7868 3.16432 7.71389 2.77873 7.57488ZM23.9402 16.6236C24.1335 16.6236 24.2902 16.4669 24.2902 16.2736V13.5613C24.2902 13.368 24.1335 13.2113 23.9402 13.2113H19.9502C19.5024 13.2113 19.0744 13.3928 18.7599 13.7135C18.4456 14.0339 18.2702 14.4672 18.2702 14.9175C18.2702 15.8471 19.022 16.6236 19.9502 16.6236H23.9402Z" fill="#0B243A" stroke="white" stroke-width="0.7" stroke-linecap="round" stroke-linejoin="round"/>
</svg>
