<svg width="28" height="29" viewBox="0 0 28 29" fill="none" xmlns="http://www.w3.org/2000/svg">
<path fill-rule="evenodd" clip-rule="evenodd" d="M12.3526 0C12.8774 0 13.3029 0.437668 13.3029 0.977558V1.99042C19.6374 2.46278 24.7053 7.61773 24.7053 14.0117C24.7053 14.5516 24.2799 14.9892 23.7551 14.9892H13.3029V23.4907C13.3029 26.0045 11.2926 28.0233 8.86857 28.0233C6.44458 28.0233 4.43428 26.0045 4.43428 23.4907C4.43428 22.9508 4.8597 22.5132 5.38449 22.5132C5.90927 22.5132 6.33469 22.9508 6.33469 23.4907C6.33469 24.9041 7.47401 26.0682 8.86857 26.0682C10.2631 26.0682 11.4024 24.9041 11.4024 23.4907V14.9892H0.950204C0.425421 14.9892 0 14.5516 0 14.0117C0 7.61773 5.06794 2.46278 11.4024 1.99042V0.977558C11.4024 0.437668 11.8279 0 12.3526 0ZM1.94902 13.0341H22.7563C22.2489 7.95545 17.8299 3.91023 12.3526 3.91023C6.87542 3.91023 2.45643 7.95545 1.94902 13.0341Z" fill="#0B243A"/>
<circle cx="21" cy="24" r="4" fill="#2D78FF"/>
</svg>
